<?xml version="1.0" encoding="UTF-8"?>
<svg id="Layer_1" data-name="Layer 1" xmlns="http://www.w3.org/2000/svg" viewBox="0 0 1784 341">
  <defs>
    <style>
      .cls-1 {
        fill: #f7931e;
      }

      .cls-2 {
        fill: #fbb03b;
      }
    </style>
  </defs>
  <g>
    <path d="m444.16,96.65l-14.24-13.94h-52.73l-8.79,8.79v132.73l8.79,8.79h52.73l14.24-13.94,25.46,25.46-24.55,24.85h-83.03l-30-30V76.35l30-30h83.03l24.55,24.85-25.46,25.46Z"/>
    <path d="m496.04,124.83l30-30h73.34l30,30v114.55l-30,30h-73.34l-30-30v-114.55Zm88.18,108.19l8.79-8.79v-84.25l-8.79-8.79h-43.03l-8.79,8.79v84.25l8.79,8.79h43.03Z"/>
    <path d="m650.05,124.53l30-30h66.97V26.95h36.36v242.43h-36.36v-13.03l-13.03,13.03h-53.94l-30-30v-114.85Zm45.15,108.49h23.64l28.18-28.18v-65.15l-8.79-8.79h-43.03l-8.79,8.79v84.55l8.79,8.79Z"/>
    <path d="m817.08,124.83l30-30h73.34l30,30,.3,47.88-30,30h-67.27v21.52l8.79,8.79h49.09l14.24-13.94,25.46,25.46-24.55,24.85h-79.4l-30-30v-114.55Zm88.49,41.52l8.79-8.79-.3-17.58-8.79-8.79h-43.03l-8.79,8.79v26.36h52.12Z"/>
    <path d="m1005.94,219.08l14.24,13.94h50.3l8.79-8.79v-41.21l-8.79-8.79h-59.4l-30-30v-67.88l30-30h77.58l24.55,24.85-25.46,25.46-14.24-13.94h-47.27l-8.79,8.79v37.58l8.79,8.79h59.4l30,30v71.52l-30,30h-80.61l-24.55-24.85,25.46-25.46Z"/>
    <path d="m1279.04,244.53l-24.55,24.85h-53.94l-30-30v-108.19h-25.46v-36.36h25.46v-32.73h36.36v32.73h50.3v36.36h-50.3v93.03l8.79,8.79h23.64l14.24-13.94,25.46,25.46Z"/>
    <path d="m1305.77,124.83l30-30h73.34l30,30v114.55l-30,30h-73.34l-30-30v-114.55Zm88.18,108.19l8.79-8.79v-84.25l-8.79-8.79h-43.03l-8.79,8.79v84.25l8.79,8.79h43.03Z"/>
    <path d="m1509.47,94.83v12.73l13.03-13.03h53.94l24.55,24.85-25.46,25.46-14.24-13.94h-23.64l-28.18,28.18v110.31h-36.37V94.83h36.37Z"/>
    <path d="m1663.78,94.83v129.4l8.79,8.79h43.03l8.79-8.79V94.83h36.36v212.43l-30,30h-80.61l-24.55-24.85,25.46-25.46,14.24,13.94h50.3l8.79-8.79v-22.73h-66.97l-30-30V94.83h36.36Z"/>
  </g>
  <g>
    <path class="cls-1" d="m55.51,312.69v-36.81l116.73-47.32-139.11-56.91,8.76-35.06,188.89,74.44-8.41,35.41-166.86,66.25Z"/>
    <path class="cls-2" d="m221.63,19.04v36.81l-116.73,47.32,139.11,56.91-8.76,35.06L46.35,120.71l8.41-35.41L221.63,19.04Z"/>
  </g>
</svg>