<?xml version="1.0" encoding="UTF-8"?>
<svg xmlns="http://www.w3.org/2000/svg" viewBox="0 0 256 256">
  <path d="m0,256V0c.53,0,255.3,0,256,0-.04.77.07,172.29-.04,255.98-85.32.03-170.64,0-255.96,0Zm228.71-120.56c-.07-.22-.08-.31-.11-.37-6.62-11.85-16.73-18.15-30.26-18.75-4.14-.18-8.3-.18-12.44.66-6.39,1.3-12.1,3.86-16.9,8.3-4.98,4.6-8,10.34-9.13,16.97-.5,2.91-.75,5.88-.39,8.91.37,3.12.77,6.21,1.81,9.15,1.73,4.89,4.53,9.13,8.36,12.67,5.18,4.78,11.31,7.98,17.67,10.8,4.96,2.2,9.99,4.29,14.85,6.69,2.33,1.15,4.55,2.7,6.49,4.43,3.07,2.74,3.59,6.48,2.8,10.29-.9,4.31-4.08,6.66-8,8.13-2.75,1.03-5.63,1.27-8.56,1.3-2.91.03-5.74-.43-8.42-1.38-4.35-1.56-7.99-4.28-10.89-7.91-1.33-1.67-2.56-3.44-3.91-5.25-6.45,3.74-12.93,7.49-19.53,11.32,1.06,1.74,1.97,3.41,3.05,4.97,8.4,12.12,20.43,17.88,34.7,19.33,4.32.44,8.74.07,13.09-.21,4.19-.27,8.26-1.35,12.16-2.9,13.55-5.38,20.61-16.04,20.62-30.2,0-2-.3-4-.49-6-.76-7.89-4.27-14.4-10.25-19.46-2.96-2.5-6.16-4.84-9.58-6.63-5.99-3.13-12.26-5.71-18.36-8.65-3.2-1.54-6.4-3.16-9.38-5.09-3.2-2.07-4.6-5.24-4.61-9.12,0-4.83,3.21-8.38,6.9-9.58,3-.98,6.07-.82,9.08-.2,3.39.7,6.01,2.73,8.1,5.43,1.04,1.34,1.95,2.78,2.98,4.26,6.16-3.96,12.33-7.93,18.53-11.91Zm-161.52,78.51c.24.43.43.74.59,1.06,6.95,13.57,18.38,20.08,33.27,20.96,4.79.28,9.57-.24,14.24-1.46,11.52-3,19-10.19,22.23-21.69,1.3-4.61,1.63-9.36,1.63-14.13,0-26.53,0-53.07,0-79.6,0-.48,0-.96,0-1.5h-24v1.63c0,23.97.02,47.95-.02,71.92,0,4.41-.04,8.85-.46,13.23-.5,5.28-3.21,8.2-6.86,9.29-1.1.33-2.26.47-3.4.65-5,.79-9.21-.78-12.46-4.58-1.7-1.99-3-4.32-4.47-6.51-.24-.36-.45-.73-.7-1.15-6.57,3.98-13.06,7.91-19.6,11.87Z" style="fill: #f0db4f;"/>
  <path d="m228.94,135.44c-6.21,3.99-12.38,7.95-18.55,11.91-1.03-1.48-1.94-2.92-2.98-4.26-2.09-2.7-4.72-4.73-8.11-5.43-3.01-.62-6.09-.78-9.09.2-3.69,1.2-6.91,4.75-6.9,9.58,0,3.88,1.41,7.05,4.61,9.12,2.98,1.93,6.19,3.54,9.39,5.09,6.1,2.94,12.38,5.52,18.37,8.65,3.42,1.79,6.63,4.13,9.59,6.63,5.99,5.06,9.51,11.57,10.26,19.46.19,2,.49,4,.49,6-.01,14.16-7.08,24.82-20.64,30.2-3.91,1.55-7.98,2.63-12.18,2.9-4.36.28-8.79.64-13.11.21-14.29-1.45-26.33-7.21-34.74-19.33-1.08-1.56-1.99-3.23-3.05-4.97,6.61-3.83,13.09-7.58,19.55-11.32,1.35,1.82,2.57,3.58,3.91,5.25,2.9,3.63,6.54,6.35,10.9,7.91,2.68.96,5.51,1.42,8.42,1.38,2.93-.03,5.81-.27,8.57-1.3,3.92-1.46,7.1-3.81,8-8.13.8-3.81.27-7.55-2.8-10.29-1.95-1.73-4.16-3.28-6.5-4.43-4.87-2.4-9.9-4.48-14.87-6.69-6.37-2.82-12.51-6.02-17.69-10.8-3.83-3.54-6.64-7.77-8.37-12.67-1.04-2.94-1.44-6.04-1.81-9.15-.36-3.03-.11-6.01.39-8.91,1.13-6.63,4.16-12.37,9.14-16.97,4.81-4.43,10.52-7,16.92-8.3,4.14-.84,8.31-.85,12.45-.66,13.54.6,23.66,6.9,30.29,18.75.04.07.05.15.11.37Z" style="fill: #323330;"/>
  <path d="m67.25,213.96c6.55-3.96,13.04-7.89,19.62-11.87.25.41.46.79.7,1.15,1.48,2.18,2.78,4.52,4.48,6.51,3.25,3.8,7.47,5.37,12.47,4.58,1.14-.18,2.3-.32,3.41-.65,3.65-1.09,6.37-4.01,6.87-9.29.42-4.39.45-8.82.46-13.23.04-23.97.02-47.95.02-71.92v-1.63h24.02c0,.54,0,1.02,0,1.5,0,26.53,0,53.07,0,79.6,0,4.77-.34,9.52-1.64,14.13-3.23,11.5-10.72,18.69-22.25,21.69-4.67,1.22-9.46,1.74-14.25,1.46-14.91-.87-26.35-7.39-33.31-20.96-.16-.32-.35-.63-.59-1.06Z" style="fill: #323330;"/>
</svg>
